# xmcd CD database file
# Copyright (C) 1993-1998 Ti Kan
#
# Track frame offsets:
#	150
#	21487
#	43462
#	61062
#	79937
#	103425
#	124175
#	148462
#	169975
#	191200
#	213237
#	230762
#	249650
#	273062
#	293850
#	318200
#
# Disc length: 4528 seconds
#
# Revision: 1
# Processed by: cddbd v1.4b41PL1 Copyright (c) Steve Scherf et al.
# Submitted via: CDValet v3.31 - Copyright (c) 1997 Greg Leichner
#
DISCID=0311ae10
DTITLE=Various (Not Original Artists) - Sing The Hits Of Billbo
DTITLE=ard 1990 (Vol. 4)
DYEAR=1900
DGENRE=
TTITLE0=From A Distance
TTITLE1=Black Velvet
TTITLE2=Loves Takes Time
TTITLE3=Don't Wanna Fall In Love
TTITLE4=Close To You
TTITLE5=Ice Ice Baby
TTITLE6=Pump Up The Jam
TTITLE7=Pretending
TTITLE8=From A Distance
TTITLE9=Black Velvet
TTITLE10=Love Takes Time
TTITLE11=Don't Wanna Fall In Love
TTITLE12=Close To You
TTITLE13=Ice Ice Baby
TTITLE14=Pump Up The Jam
TTITLE15=Pretending
EXTD=
EXTT0=
EXTT1=
EXTT2=
EXTT3=
EXTT4=
EXTT5=
EXTT6=
EXTT7=
EXTT8=
EXTT9=
EXTT10=
EXTT11=
EXTT12=
EXTT13=
EXTT14=
EXTT15=
PLAYORDER=
